Coordinates
version=1
nRows=16
nColumns=63
inDegrees=yes

Units are S.I. units (second, meters, Newtons, ...)
If the header above contains a line with 'inDegrees', this indicates whether rotational values are in degrees (yes) or radians (no).

endheader
time	pelvis_tilt	pelvis_list	pelvis_rotation	pelvis_tx	pelvis_ty	pelvis_tz	hip_flexion_r	hip_adduction_r	hip_rotation_r	knee_angle_r	knee_angle_r_beta	ankle_angle_r	subtalar_angle_r	mtp_angle_r	hip_flexion_l	hip_adduction_l	hip_rotation_l	knee_angle_l	knee_angle_l_beta	ankle_angle_l	subtalar_angle_l	mtp_angle_l	L5_S1_Flex_Ext	L5_S1_Lat_Bending	L5_S1_axial_rotation	L4_L5_Flex_Ext	L4_L5_Lat_Bending	L4_L5_axial_rotation	L3_L4_Flex_Ext	L3_L4_Lat_Bending	L3_L4_axial_rotation	L2_L3_Flex_Ext	L2_L3_Lat_Bending	L2_L3_axial_rotation	L1_L2_Flex_Ext	L1_L2_Lat_Bending	L1_L2_axial_rotation	L1_T12_Flex_Ext	L1_T12_Lat_Bending	L1_T12_axial_rotation	Abs_r3	Abs_r2	Abs_r1	Abs_t1	Abs_t2	neck_flexion	neck_bending	neck_rotation	arm_flex_r	arm_add_r	arm_rot_r	elbow_flex_r	pro_sup_r	wrist_flex_r	wrist_dev_r	arm_flex_l	arm_add_l	arm_rot_l	elbow_flex_l	pro_sup_l	wrist_flex_l	wrist_dev_l
2.355932	-1.113088	-6.800236	79.048156	0.346386	0.960300	0.443533	7.042516	5.720958	3.299178	2.672929	0.046651	9.139644	-15.569474	0.000000	8.720182	-4.871443	-5.955456	8.289555	0.144680	26.562456	-1.695671	0.000000	-0.036064	0.180182	0.152870	-0.066975	0.239642	0.162424	-0.059250	0.438094	0.162424	-0.041218	0.438094	0.133761	-0.033489	0.367427	0.124207	-0.020607	0.279102	0.114652	-0.257603	2.038253	0.850215	0.000000	0.000000	20.827571	4.581302	-11.459115	27.526549	-20.818791	7.802626	146.588536	88.744508	-7.881382	-1.576535	26.457120	-11.464781	6.267766	144.832757	86.901826	-16.619574	-2.009003
2.372881	-1.090676	-6.580247	78.959564	0.347177	0.960585	0.443079	6.833143	5.750693	3.322372	2.789414	0.048684	9.066409	-15.628823	0.000000	8.468376	-4.895956	-6.098249	8.278976	0.144495	26.715141	-1.543044	0.000000	-0.039491	0.167561	0.152556	-0.073338	0.222855	0.162091	-0.064879	0.407407	0.162091	-0.045134	0.407407	0.133487	-0.036671	0.341689	0.123952	-0.022565	0.259551	0.114417	-0.282077	1.895478	0.848472	0.000000	0.000000	20.581419	4.915979	-11.326145	27.560837	-20.451861	7.786318	147.180412	90.194634	-7.964403	-2.553740	25.618402	-11.307130	5.044137	145.918219	88.262831	-16.694674	-2.078148
2.389831	-1.066877	-6.386338	78.844857	0.348060	0.960654	0.442469	6.671140	5.792934	3.381279	2.976070	0.051942	9.126304	-15.644390	0.000000	8.253609	-4.948012	-6.404968	8.297448	0.144818	27.019800	-1.197835	0.000000	-0.037757	0.156238	0.161835	-0.070119	0.207797	0.171949	-0.062031	0.379878	0.171949	-0.043153	0.379878	0.141605	-0.035061	0.318601	0.131491	-0.021574	0.242013	0.121376	-0.269696	1.767399	0.900076	0.000000	0.000000	20.391000	5.158654	-11.265436	27.197796	-19.973625	8.049532	147.471424	91.306133	-8.187502	-3.206438	24.572517	-11.108491	4.101677	146.656304	89.313184	-16.688822	-2.292787
2.406780	-1.038231	-6.201846	78.720324	0.348953	0.960493	0.441696	6.541261	5.842486	3.466089	3.236235	0.056483	9.340762	-15.618890	0.000000	8.070871	-5.010220	-6.727235	8.365196	0.146000	27.456911	-0.859915	0.000000	-0.035680	0.147808	0.170229	-0.066262	0.196584	0.180869	-0.058619	0.359380	0.180869	-0.040779	0.359380	0.148951	-0.033133	0.301409	0.138311	-0.020388	0.228954	0.127672	-0.254860	1.672030	0.946764	0.000000	0.000000	20.330151	5.318088	-11.210009	26.403903	-19.416294	8.742856	147.378632	91.156838	-8.565942	-3.683082	23.324284	-10.902817	3.500359	146.922267	89.467265	-16.448618	-2.720096
2.423729	-0.988853	-6.042448	78.575382	0.349817	0.960081	0.440746	6.459538	5.916779	3.584306	3.574392	0.062385	9.707321	-15.568396	0.000000	7.930989	-5.100215	-7.062145	8.493020	0.148231	28.009086	-0.556343	0.000000	-0.031731	0.145893	0.180496	-0.058928	0.194037	0.191777	-0.052132	0.354723	0.191777	-0.036266	0.354723	0.157934	-0.029466	0.297504	0.146653	-0.018131	0.225988	0.135372	-0.226655	1.650366	1.003867	0.000000	0.000000	20.408072	5.347486	-11.126569	25.144785	-18.802718	9.808753	146.903526	90.112987	-9.064265	-3.833080	21.897423	-10.680779	3.278242	146.660569	88.583798	-16.004652	-3.113508
2.440678	-0.906284	-5.919076	78.412778	0.350603	0.959432	0.439621	6.440991	6.027901	3.743352	3.999671	0.069807	10.202245	-15.528000	0.000000	7.842930	-5.230232	-7.407543	8.691803	0.151701	28.643255	-0.305409	0.000000	-0.024829	0.152826	0.194074	-0.046111	0.203258	0.206203	-0.040792	0.371580	0.206203	-0.028378	0.371580	0.169815	-0.023057	0.311642	0.157685	-0.014188	0.236727	0.145555	-0.177354	1.728795	1.079380	0.000000	0.000000	20.626776	5.231442	-10.998085	23.441725	-18.157538	11.145382	146.058287	88.645864	-9.597124	-3.618256	20.347592	-10.435288	3.470097	145.826991	86.740206	-15.385296	-3.390155
2.457627	-0.782170	-5.825742	78.235538	0.351284	0.958591	0.438341	6.476863	6.181189	3.935727	4.502706	0.078587	10.806956	-15.499577	0.000000	7.796802	-5.400979	-7.720794	8.961840	0.156414	29.307003	-0.178171	0.000000	-0.016012	0.169398	0.208095	-0.029736	0.225300	0.221101	-0.026306	0.411876	0.221101	-0.018300	0.411876	0.182083	-0.014869	0.345437	0.169077	-0.009149	0.262398	0.156071	-0.114373	1.916270	1.157361	0.000000	0.000000	20.983404	4.956548	-10.808937	21.399717	-17.492729	12.676532	144.837044	87.193372	-10.062981	-3.135978	18.710149	-10.161062	4.025201	144.457312	84.254872	-14.633272	-3.434848
2.474576	-0.628023	-5.759838	78.051023	0.351845	0.957593	0.436941	6.567162	6.363018	4.170110	5.076968	0.088610	11.500487	-15.519503	0.000000	7.790800	-5.594712	-7.965640	9.299362	0.162304	29.946622	-0.217510	0.000000	-0.004161	0.192766	0.221674	-0.007728	0.256379	0.235529	-0.006836	0.468691	0.235529	-0.004756	0.468691	0.193965	-0.003864	0.393088	0.180110	-0.002378	0.298594	0.166256	-0.029723	2.180606	1.232887	0.000000	0.000000	21.459833	4.576183	-10.600011	19.127194	-16.805791	14.296015	143.283708	85.864350	-10.373909	-2.377814	17.025587	-9.873069	4.879269	142.631432	81.618112	-13.819302	-3.150289
2.491525	-0.450938	-5.698131	77.873012	0.352271	0.956506	0.435465	6.686425	6.558678	4.399459	5.708899	0.099639	12.268579	-15.560821	0.000000	7.804395	-5.794118	-8.100325	9.699551	0.169289	30.523995	-0.464712	0.000000	0.008821	0.220699	0.228600	0.016382	0.293530	0.242888	0.014492	0.536609	0.242888	0.010082	0.536609	0.200025	0.008191	0.450050	0.185738	0.005040	0.341863	0.171450	0.063009	2.496596	1.271406	0.000000	0.000000	22.029491	4.134768	-10.360137	16.781142	-16.102650	15.976303	141.396380	84.685711	-10.532121	-1.443805	15.289547	-9.577528	5.896261	140.442964	79.120527	-12.891768	-2.613452
2.508475	-0.257335	-5.635281	77.688104	0.352652	0.955378	0.433983	6.834982	6.769109	4.636284	6.404943	0.111787	13.082850	-15.631443	0.000000	7.820617	-6.003306	-8.171474	10.138131	0.176944	31.036150	-0.831997	0.000000	0.023419	0.250080	0.232918	0.043491	0.332606	0.247475	0.038475	0.608044	0.247475	0.026765	0.608044	0.203803	0.021747	0.509963	0.189246	0.013381	0.387374	0.174688	0.167278	2.828953	1.295419	0.000000	0.000000	22.650514	3.681745	-10.170211	14.484264	-15.396509	17.691883	139.211727	83.690836	-10.656157	-0.391402	13.500751	-9.359161	7.125793	138.047106	76.468712	-12.216888	-1.862484
2.525424	-0.064635	-5.563246	77.515801	0.352959	0.954258	0.432519	6.997739	6.969101	4.836363	7.140460	0.124625	13.937049	-15.707616	0.000000	7.834186	-6.192038	-8.103250	10.601303	0.185028	31.458469	-1.380691	0.000000	0.039238	0.278516	0.230430	0.072870	0.370426	0.244832	0.064465	0.677183	0.244832	0.044846	0.677183	0.201627	0.036437	0.567949	0.187225	0.022421	0.431421	0.172823	0.280276	3.150625	1.281585	0.000000	0.000000	23.300691	3.252271	-9.991870	12.319212	-14.731151	19.372577	136.793962	82.936183	-10.705909	0.766873	11.609741	-9.223662	8.385366	135.490627	73.951697	-11.374566	-1.087505
2.542373	0.126982	-5.478030	77.387357	0.353182	0.953191	0.431100	7.171026	7.155470	4.956734	7.911357	0.138079	14.796628	-15.797897	0.000000	7.846299	-6.357139	-7.837129	11.081388	0.193407	31.784017	-2.123479	0.000000	0.055334	0.305531	0.217048	0.102761	0.406356	0.230613	0.090908	0.742868	0.230613	0.063241	0.742868	0.189917	0.051383	0.623039	0.176351	0.031618	0.473267	0.162786	0.395246	3.456226	1.207154	0.000000	0.000000	23.962370	2.867218	-9.764262	10.306029	-14.143218	20.961743	134.254024	82.423386	-10.692393	2.036227	9.587798	-9.228786	9.551220	132.853281	71.745301	-10.076461	-0.383291
2.559322	0.328996	-5.381738	77.320896	0.353277	0.952216	0.429722	7.340738	7.335893	4.957001	8.687578	0.151627	15.633119	-15.880963	0.000000	7.857327	-6.506632	-7.356882	11.571701	0.201964	32.006441	-3.045476	0.000000	0.071392	0.331702	0.195930	0.132582	0.441163	0.208175	0.117290	0.806499	0.208175	0.081594	0.806499	0.171439	0.066295	0.676406	0.159193	0.040793	0.513806	0.146947	0.509947	3.752275	1.089702	0.000000	0.000000	24.628020	2.506502	-9.560277	8.394264	-13.683482	22.287537	131.731414	82.018625	-10.308685	3.498899	7.439270	-9.356686	10.597276	130.190170	70.065738	-8.178367	0.244332
2.576271	0.521777	-5.290735	77.270895	0.353285	0.951350	0.428415	7.524259	7.500707	4.896316	9.467934	0.165247	16.427065	-15.971757	0.000000	7.858309	-6.632151	-6.753559	12.031935	0.209997	32.105079	-4.090040	0.000000	0.090190	0.356165	0.170594	0.167492	0.473700	0.181256	0.148173	0.865980	0.181256	0.103078	0.865980	0.149270	0.083750	0.726292	0.138607	0.051534	0.551700	0.127945	0.644217	4.029011	0.948792	0.000000	0.000000	25.272899	2.219664	-9.240529	6.630941	-13.453618	23.517518	129.306195	81.851659	-9.910206	4.857279	5.159401	-9.668858	11.505759	127.583536	69.004164	-5.700460	0.753388
2.593220	0.733961	-5.199467	77.312809	0.353080	0.950619	0.427153	7.697413	7.664556	4.681919	10.217934	0.178337	17.150809	-16.036371	0.000000	7.861539	-6.750160	-5.960419	12.482169	0.217855	32.070350	-5.254470	0.000000	0.109963	0.381411	0.132588	0.204212	0.507277	0.140874	0.180658	0.927363	0.140874	0.125677	0.927363	0.116014	0.102112	0.777773	0.107727	0.062833	0.590806	0.099441	0.785455	4.314598	0.737413	0.000000	0.000000	25.887900	1.991818	-8.838937	4.985426	-13.457438	24.514358	127.040944	81.666436	-9.055663	6.224734	2.778603	-10.102553	12.287791	125.137496	68.593959	-2.707667	1.411375
2.610169	0.964806	-5.114271	77.402786	0.352699	0.950027	0.425963	7.863739	7.832222	4.354670	10.934763	0.190848	17.776430	-16.076103	0.000000	7.848188	-6.870216	-5.073393	12.891128	0.224993	31.907170	-6.472518	0.000000	0.131101	0.407221	0.097843	0.243467	0.541604	0.103958	0.215386	0.990117	0.103958	0.149835	0.990117	0.085613	0.121740	0.830405	0.079497	0.074911	0.630785	0.073382	0.936440	4.606565	0.544173	0.000000	0.000000	26.458376	1.776518	-8.426199	3.449713	-13.736000	25.279876	125.006158	81.386419	-7.822031	7.615572	0.391188	-10.626882	12.988936	122.908507	68.964685	0.855972	2.257992
